<?xml version="1.0" standalone="no"?><svg xmlns:xlink="http://www.w3.org/1999/xlink" xmlns="http://www.w3.org/2000/svg" viewBox="0 0 1000 1000.0000000000001" preserveAspectRatio="xMaxYMax slice"><g transform="scale(1.2658227848101267)"><rect x="0" y="0" width="790" height="790" fill="#ffffff"/><rect x="0" y="0" width="197.5" height="197.5" fill="#ffffff"/><rect x="0" y="0" width="98.75" height="98.75" fill="#5f56d2"/><polygon points="0,0 98.75,0 98.75,98.75" fill="#9993e2"/><rect x="98.75" y="0" width="98.75" height="98.75" fill="#c5dafc"/><polygon points="98.75,0 197.5,0 98.75,98.75" fill="#fafcff"/><rect x="0" y="98.75" width="98.75" height="98.75" fill="#867fdd"/><polygon points="98.75,98.75 98.75,197.5 0,197.5" fill="#594fd0"/><rect x="98.75" y="98.75" width="98.75" height="98.75" fill="#bfd6fc"/><polygon points="197.5,98.75 197.5,197.5 98.75,197.5" fill="#70a4f8"/><rect x="197.5" y="0" width="197.5" height="197.5" fill="#c2beee"/><polygon points="197.5,0 395,0 197.5,197.5" fill="#584fd0"/><rect x="395" y="0" width="197.5" height="197.5" fill="#ffffff"/><rect x="395" y="0" width="98.75" height="98.75" fill="#f9f9fd"/><polygon points="493.75,0 493.75,98.75 395,98.75" fill="#fdfdff"/><rect x="493.75" y="0" width="98.75" height="98.75" fill="#e5eefe"/><polygon points="592.5,0 592.5,98.75 493.75,98.75" fill="#dad8f5"/><rect x="395" y="98.75" width="98.75" height="98.75" fill="#86b2f9"/><polygon points="395,98.75 493.75,197.5 395,197.5" fill="#7c74da"/><rect x="493.75" y="98.75" width="98.75" height="98.75" fill="#fefeff"/><polygon points="493.75,98.75 592.5,98.75 493.75,197.5" fill="#5c97f7"/><rect x="592.5" y="0" width="197.5" height="197.5" fill="#ffffff"/><rect x="592.5" y="0" width="98.75" height="98.75" fill="#d9e7fd"/><polygon points="691.25,0 691.25,98.75 592.5,98.75" fill="#c3d9fc"/><rect x="691.25" y="0" width="98.75" height="98.75" fill="#f0f6fe"/><polygon points="691.25,0 790,0 790,98.75" fill="#c2bfee"/><rect x="592.5" y="98.75" width="98.75" height="98.75" fill="#5492f7"/><polygon points="592.5,98.75 691.25,197.5 592.5,197.5" fill="#e7f0fe"/><rect x="691.25" y="98.75" width="98.75" height="98.75" fill="#8881de"/><polygon points="691.25,98.75 790,197.5 691.25,197.5" fill="#574dd0"/><rect x="0" y="197.5" width="197.5" height="197.5" fill="#ffffff"/><rect x="0" y="197.5" width="98.75" height="98.75" fill="#eef4fe"/><polygon points="0,197.5 98.75,296.25 0,296.25" fill="#908ae0"/><rect x="98.75" y="197.5" width="98.75" height="98.75" fill="#f6f9ff"/><polygon points="197.5,197.5 197.5,296.25 98.75,296.25" fill="#4f8ff7"/><rect x="0" y="296.25" width="98.75" height="98.75" fill="#b7d1fc"/><polygon points="0,296.25 98.75,296.25 98.75,395" fill="#b2cefb"/><rect x="98.75" y="296.25" width="98.75" height="98.75" fill="#5046ce"/><polygon points="98.75,296.25 197.5,296.25 197.5,395" fill="#7babf9"/><rect x="197.5" y="197.5" width="197.5" height="197.5" fill="#948ee1"/><polygon points="197.5,197.5 395,197.5 197.5,395" fill="#e4e2f7"/><rect x="395" y="197.5" width="197.5" height="197.5" fill="#ffffff"/><rect x="395" y="197.5" width="98.75" height="98.75" fill="#9a94e3"/><polygon points="395,197.5 493.75,296.25 395,296.25" fill="#6fa3f8"/><rect x="493.75" y="197.5" width="98.75" height="98.75" fill="#fdfeff"/><polygon points="493.75,197.5 592.5,197.5 493.75,296.25" fill="#5147ce"/><rect x="395" y="296.25" width="98.75" height="98.75" fill="#756dd8"/><polygon points="493.75,296.25 493.75,395 395,395" fill="#abc9fb"/><rect x="493.75" y="296.25" width="98.75" height="98.75" fill="#b2cefb"/><polygon points="493.75,296.25 592.5,296.25 592.5,395" fill="#b8b4eb"/><rect x="592.5" y="197.5" width="197.5" height="197.5" fill="#d2e2fd"/><polygon points="592.5,197.5 790,197.5 790,395" fill="#9993e2"/><rect x="0" y="395" width="197.5" height="197.5" fill="#ffffff"/><rect x="0" y="395" width="98.75" height="98.75" fill="#d3d1f3"/><polygon points="0,395 98.75,493.75 0,493.75" fill="#9dc0fa"/><rect x="98.75" y="395" width="98.75" height="98.75" fill="#736bd7"/><polygon points="98.75,395 197.5,493.75 98.75,493.75" fill="#7eadf9"/><rect x="0" y="493.75" width="98.75" height="98.75" fill="#c8c5ef"/><polygon points="98.75,493.75 98.75,592.5 0,592.5" fill="#fdfdff"/><rect x="98.75" y="493.75" width="98.75" height="98.75" fill="#4588f6"/><polygon points="98.75,493.75 197.5,493.75 197.5,592.5" fill="#d2cff2"/><rect x="197.5" y="395" width="197.5" height="197.5" fill="#ffffff"/><rect x="197.5" y="395" width="98.75" height="98.75" fill="#6960d5"/><polygon points="296.25,395 296.25,493.75 197.5,493.75" fill="#c9ddfd"/><rect x="296.25" y="395" width="98.75" height="98.75" fill="#4d42cd"/><polygon points="296.25,395 395,395 296.25,493.75" fill="#8ab4fa"/><rect x="197.5" y="493.75" width="98.75" height="98.75" fill="#cbdefd"/><polygon points="197.5,493.75 296.25,592.5 197.5,592.5" fill="#b9b5eb"/><rect x="296.25" y="493.75" width="98.75" height="98.75" fill="#3c82f6"/><polygon points="296.25,493.75 395,592.5 296.25,592.5" fill="#c7dbfc"/><rect x="395" y="395" width="197.5" height="197.5" fill="#ffffff"/><rect x="395" y="395" width="98.75" height="98.75" fill="#f0effb"/><polygon points="493.75,395 493.75,493.75 395,493.75" fill="#7f77db"/><rect x="493.75" y="395" width="98.75" height="98.75" fill="#5349ce"/><polygon points="493.75,395 592.5,395 592.5,493.75" fill="#4c8df7"/><rect x="395" y="493.75" width="98.75" height="98.75" fill="#f1f6fe"/><polygon points="395,493.75 493.75,493.75 395,592.5" fill="#4589f6"/><rect x="493.75" y="493.75" width="98.75" height="98.75" fill="#a9c8fb"/><polygon points="493.75,493.75 592.5,493.75 493.75,592.5" fill="#fdfdfe"/><rect x="592.5" y="395" width="197.5" height="197.5" fill="#f8fbff"/><polygon points="592.5,395 790,395 592.5,592.5" fill="#7dacf9"/><rect x="0" y="592.5" width="197.5" height="197.5" fill="#ffffff"/><rect x="0" y="592.5" width="98.75" height="98.75" fill="#908ae0"/><polygon points="98.75,592.5 98.75,691.25 0,691.25" fill="#8bb5fa"/><rect x="98.75" y="592.5" width="98.75" height="98.75" fill="#d0e1fd"/><polygon points="98.75,592.5 197.5,691.25 98.75,691.25" fill="#5f99f8"/><rect x="0" y="691.25" width="98.75" height="98.75" fill="#feffff"/><polygon points="98.75,691.25 98.75,790 0,790" fill="#5b96f7"/><rect x="98.75" y="691.25" width="98.75" height="98.75" fill="#c3d9fc"/><polygon points="98.75,691.25 197.5,691.25 98.75,790" fill="#cbc8f0"/><rect x="197.5" y="592.5" width="197.5" height="197.5" fill="#e4eefe"/><polygon points="197.5,592.5 395,592.5 395,790" fill="#afccfb"/><rect x="395" y="592.5" width="197.5" height="197.5" fill="#4085f6"/><polygon points="395,592.5 592.5,592.5 592.5,790" fill="#70a4f8"/><rect x="592.5" y="592.5" width="197.5" height="197.5" fill="#f9f9fd"/><polygon points="592.5,592.5 790,592.5 790,790" fill="#8079db"/></g></svg>