<?xml version="1.0" standalone="no"?><svg xmlns:xlink="http://www.w3.org/1999/xlink" xmlns="http://www.w3.org/2000/svg" viewBox="0 0 1000 500" preserveAspectRatio="xMaxYMax slice"><g transform="scale(0.6587615283267457)"><rect x="0" y="0" width="1518" height="759" fill="#ffffff"/><rect x="0" y="0" width="379.5" height="379.5" fill="#ffffff"/><rect x="0" y="0" width="189.75" height="189.75" fill="#a7c7fb"/><polygon points="0,0 189.75,0 0,189.75" fill="#c0d7fc"/><rect x="189.75" y="0" width="189.75" height="189.75" fill="#7972d9"/><polygon points="189.75,0 379.5,0 189.75,189.75" fill="#3f85f6"/><rect x="0" y="189.75" width="189.75" height="189.75" fill="#4f8ff7"/><polygon points="0,189.75 189.75,189.75 0,379.5" fill="#9e98e4"/><rect x="189.75" y="189.75" width="189.75" height="189.75" fill="#3f85f6"/><polygon points="189.75,189.75 379.5,379.5 189.75,379.5" fill="#9892e2"/><rect x="379.5" y="0" width="379.5" height="379.5" fill="#ffffff"/><rect x="379.5" y="0" width="189.75" height="189.75" fill="#ebeaf9"/><polygon points="379.5,0 569.25,0 569.25,189.75" fill="#746cd8"/><rect x="569.25" y="0" width="189.75" height="189.75" fill="#84b0f9"/><polygon points="569.25,0 759,189.75 569.25,189.75" fill="#bab6ec"/><rect x="379.5" y="189.75" width="189.75" height="189.75" fill="#9ec1fb"/><polygon points="569.25,189.75 569.25,379.5 379.5,379.5" fill="#817adc"/><rect x="569.25" y="189.75" width="189.75" height="189.75" fill="#4338ca"/><polygon points="569.25,189.75 759,189.75 759,379.5" fill="#5d54d1"/><rect x="759" y="0" width="379.5" height="379.5" fill="#3f85f6"/><polygon points="759,0 1138.5,379.5 759,379.5" fill="#544acf"/><rect x="1138.5" y="0" width="379.5" height="379.5" fill="#3f85f6"/><polygon points="1138.5,0 1518,379.5 1138.5,379.5" fill="#cddffd"/><rect x="0" y="379.5" width="379.5" height="379.5" fill="#ffffff"/><rect x="0" y="379.5" width="189.75" height="189.75" fill="#b0cdfb"/><polygon points="189.75,379.5 189.75,569.25 0,569.25" fill="#d5d2f3"/><rect x="189.75" y="379.5" width="189.75" height="189.75" fill="#d5d2f3"/><polygon points="189.75,379.5 379.5,379.5 189.75,569.25" fill="#aaa5e7"/><rect x="0" y="569.25" width="189.75" height="189.75" fill="#dad7f4"/><polygon points="0,569.25 189.75,759 0,759" fill="#e8f0fe"/><rect x="189.75" y="569.25" width="189.75" height="189.75" fill="#857edd"/><polygon points="189.75,569.25 379.5,759 189.75,759" fill="#b3cefb"/><rect x="379.5" y="379.5" width="379.5" height="379.5" fill="#ffffff"/><rect x="379.5" y="379.5" width="189.75" height="189.75" fill="#6157d2"/><polygon points="379.5,379.5 569.25,379.5 379.5,569.25" fill="#d4d1f3"/><rect x="569.25" y="379.5" width="189.75" height="189.75" fill="#71a5f8"/><polygon points="569.25,379.5 759,569.25 569.25,569.25" fill="#90b8fa"/><rect x="379.5" y="569.25" width="189.75" height="189.75" fill="#83b0f9"/><polygon points="379.5,569.25 569.25,569.25 569.25,759" fill="#eef4fe"/><rect x="569.25" y="569.25" width="189.75" height="189.75" fill="#483dcb"/><polygon points="569.25,569.25 759,569.25 569.25,759" fill="#9993e2"/><rect x="759" y="379.5" width="379.5" height="379.5" fill="#6ba0f8"/><polygon points="759,379.5 1138.5,379.5 759,759" fill="#eef4fe"/><rect x="1138.5" y="379.5" width="379.5" height="379.5" fill="#ffffff"/><rect x="1138.5" y="379.5" width="189.75" height="189.75" fill="#eeedfa"/><polygon points="1138.5,379.5 1328.25,379.5 1328.25,569.25" fill="#5794f7"/><rect x="1328.25" y="379.5" width="189.75" height="189.75" fill="#b1ace9"/><polygon points="1328.25,379.5 1518,379.5 1328.25,569.25" fill="#d4e3fd"/><rect x="1138.5" y="569.25" width="189.75" height="189.75" fill="#aba6e7"/><polygon points="1328.25,569.25 1328.25,759 1138.5,759" fill="#f0effb"/><rect x="1328.25" y="569.25" width="189.75" height="189.75" fill="#ada8e8"/><polygon points="1518,569.25 1518,759 1328.25,759" fill="#88b3fa"/></g></svg>