<?xml version="1.0" standalone="no"?><svg xmlns:xlink="http://www.w3.org/1999/xlink" xmlns="http://www.w3.org/2000/svg" viewBox="0 0 1000 1000" preserveAspectRatio="xMaxYMax slice"><g transform="scale(1.4306151645207439)"><rect x="0" y="0" width="699" height="699" fill="#ffffff"/><rect x="0" y="0" width="174.75" height="174.75" fill="#95c3bf"/><polygon points="0,0 174.75,0 0,174.75" fill="#dfeceb"/><rect x="174.75" y="0" width="174.75" height="174.75" fill="#aac9fb"/><polygon points="174.75,0 349.5,174.75 174.75,174.75" fill="#58a09a"/><rect x="349.5" y="0" width="174.75" height="174.75" fill="#ffffff"/><rect x="349.5" y="0" width="87.38" height="87.38" fill="#82aff9"/><polygon points="349.5,0 436.88,0 436.88,87.38" fill="#a1c9c6"/><rect x="436.88" y="0" width="87.38" height="87.38" fill="#9bc6c3"/><polygon points="524.26,0 524.26,87.38 436.88,87.38" fill="#92bafa"/><rect x="349.5" y="87.38" width="87.38" height="87.38" fill="#7fb6b1"/><polygon points="349.5,87.38 436.88,87.38 436.88,174.76" fill="#86bab6"/><rect x="436.88" y="87.38" width="87.38" height="87.38" fill="#6da2f8"/><polygon points="436.88,87.38 524.26,87.38 524.26,174.76" fill="#498bf7"/><rect x="524.25" y="0" width="174.75" height="174.75" fill="#f3f8f8"/><polygon points="699,0 699,174.75 524.25,174.75" fill="#a1c3fb"/><rect x="0" y="174.75" width="174.75" height="174.75" fill="#579f99"/><polygon points="174.75,174.75 174.75,349.5 0,349.5" fill="#bbd8d6"/><rect x="174.75" y="174.75" width="174.75" height="174.75" fill="#ffffff"/><rect x="174.75" y="174.75" width="87.38" height="87.38" fill="#b9d7d5"/><polygon points="174.75,174.75 262.13,174.75 174.75,262.13" fill="#dde9fd"/><rect x="262.13" y="174.75" width="87.38" height="87.38" fill="#aac9fb"/><polygon points="349.51,174.75 349.51,262.13 262.13,262.13" fill="#187b74"/><rect x="174.75" y="262.13" width="87.38" height="87.38" fill="#8bbdb9"/><polygon points="174.75,262.13 262.13,349.51 174.75,349.51" fill="#a1c9c6"/><rect x="262.13" y="262.13" width="87.38" height="87.38" fill="#abcfcc"/><polygon points="262.13,262.13 349.51,262.13 262.13,349.51" fill="#dcebea"/><rect x="349.5" y="174.75" width="174.75" height="174.75" fill="#72aeaa"/><polygon points="524.25,174.75 524.25,349.5 349.5,349.5" fill="#639bf8"/><rect x="524.25" y="174.75" width="174.75" height="174.75" fill="#ffffff"/><rect x="524.25" y="174.75" width="87.38" height="87.38" fill="#2a857e"/><polygon points="524.25,174.75 611.63,262.13 524.25,262.13" fill="#82b8b4"/><rect x="611.63" y="174.75" width="87.38" height="87.38" fill="#679ef8"/><polygon points="611.63,174.75 699.01,174.75 611.63,262.13" fill="#519c96"/><rect x="524.25" y="262.13" width="87.38" height="87.38" fill="#c4d9fc"/><polygon points="524.25,262.13 611.63,262.13 611.63,349.51" fill="#318a83"/><rect x="611.63" y="262.13" width="87.38" height="87.38" fill="#378d86"/><polygon points="611.63,262.13 699.01,262.13 611.63,349.51" fill="#93bafa"/><rect x="0" y="349.5" width="174.75" height="174.75" fill="#ffffff"/><rect x="0" y="349.5" width="87.38" height="87.38" fill="#5fa49f"/><polygon points="0,349.5 87.38,349.5 0,436.88" fill="#f0f6f6"/><rect x="87.38" y="349.5" width="87.38" height="87.38" fill="#4b8cf7"/><polygon points="174.76,349.5 174.76,436.88 87.38,436.88" fill="#d7e6fd"/><rect x="0" y="436.88" width="87.38" height="87.38" fill="#d3e3fd"/><polygon points="0,436.88 87.38,524.26 0,524.26" fill="#6ca1f8"/><rect x="87.38" y="436.88" width="87.38" height="87.38" fill="#d0e1fd"/><polygon points="87.38,436.88 174.76,436.88 174.76,524.26" fill="#c3dddb"/><rect x="174.75" y="349.5" width="174.75" height="174.75" fill="#b6d5d3"/><polygon points="174.75,349.5 349.5,349.5 349.5,524.25" fill="#b5d0fc"/><rect x="349.5" y="349.5" width="174.75" height="174.75" fill="#8bb5fa"/><polygon points="349.5,349.5 524.25,349.5 349.5,524.25" fill="#4387f6"/><rect x="524.25" y="349.5" width="174.75" height="174.75" fill="#b1cdfb"/><polygon points="524.25,349.5 699,524.25 524.25,524.25" fill="#ecf4f4"/><rect x="0" y="524.25" width="174.75" height="174.75" fill="#bed5fc"/><polygon points="0,524.25 174.75,524.25 174.75,699" fill="#add0ce"/><rect x="174.75" y="524.25" width="174.75" height="174.75" fill="#c2d8fc"/><polygon points="174.75,524.25 349.5,524.25 349.5,699" fill="#97bdfa"/><rect x="349.5" y="524.25" width="174.75" height="174.75" fill="#ffffff"/><rect x="349.5" y="524.25" width="87.38" height="87.38" fill="#cfe4e2"/><polygon points="436.88,524.25 436.88,611.63 349.5,611.63" fill="#a2c3fb"/><rect x="436.88" y="524.25" width="87.38" height="87.38" fill="#5190f7"/><polygon points="436.88,524.25 524.26,611.63 436.88,611.63" fill="#accafb"/><rect x="349.5" y="611.63" width="87.38" height="87.38" fill="#ccdefd"/><polygon points="349.5,611.63 436.88,699.01 349.5,699.01" fill="#62a5a0"/><rect x="436.88" y="611.63" width="87.38" height="87.38" fill="#62a5a0"/><polygon points="524.26,611.63 524.26,699.01 436.88,699.01" fill="#b8d2fc"/><rect x="524.25" y="524.25" width="174.75" height="174.75" fill="#ffffff"/><rect x="524.25" y="524.25" width="87.38" height="87.38" fill="#147971"/><polygon points="524.25,524.25 611.63,524.25 611.63,611.63" fill="#88b3fa"/><rect x="611.63" y="524.25" width="87.38" height="87.38" fill="#5895f7"/><polygon points="611.63,524.25 699.01,611.63 611.63,611.63" fill="#fbfdfd"/><rect x="524.25" y="611.63" width="87.38" height="87.38" fill="#d9e9e8"/><polygon points="524.25,611.63 611.63,611.63 524.25,699.01" fill="#318982"/><rect x="611.63" y="611.63" width="87.38" height="87.38" fill="#679ef8"/><polygon points="611.63,611.63 699.01,611.63 699.01,699.01" fill="#6099f8"/></g></svg>