<?xml version="1.0" standalone="no"?><svg xmlns:xlink="http://www.w3.org/1999/xlink" xmlns="http://www.w3.org/2000/svg" viewBox="0 0 1000 2000.0000000000002" preserveAspectRatio="xMaxYMax slice"><g transform="scale(2.5316455696202533)"><rect x="0" y="0" width="395" height="790" fill="#ffffff"/><rect x="0" y="0" width="98.75" height="98.75" fill="#669df8"/><polygon points="0,0 98.75,98.75 0,98.75" fill="#5f55d2"/><rect x="98.75" y="0" width="98.75" height="98.75" fill="#f9f9fd"/><polygon points="98.75,0 197.5,0 98.75,98.75" fill="#e1dff6"/><rect x="197.5" y="0" width="98.75" height="98.75" fill="#ffffff"/><rect x="197.5" y="0" width="49.38" height="49.38" fill="#87b2f9"/><polygon points="197.5,0 246.88,49.38 197.5,49.38" fill="#9c97e3"/><rect x="246.88" y="0" width="49.38" height="49.38" fill="#90b8fa"/><polygon points="296.26,0 296.26,49.38 246.88,49.38" fill="#6ca1f8"/><rect x="197.5" y="49.38" width="49.38" height="49.38" fill="#a49fe5"/><polygon points="197.5,49.38 246.88,49.38 197.5,98.76" fill="#6f66d6"/><rect x="246.88" y="49.38" width="49.38" height="49.38" fill="#f0f5fe"/><polygon points="246.88,49.38 296.26,98.76 246.88,98.76" fill="#eeedfa"/><rect x="296.25" y="0" width="98.75" height="98.75" fill="#4b8cf7"/><polygon points="296.25,0 395,0 395,98.75" fill="#4387f6"/><rect x="0" y="98.75" width="98.75" height="98.75" fill="#ffffff"/><rect x="0" y="98.75" width="49.38" height="49.38" fill="#8eb7fa"/><polygon points="0,98.75 49.38,98.75 0,148.13" fill="#c5dafc"/><rect x="49.38" y="98.75" width="49.38" height="49.38" fill="#9d97e3"/><polygon points="49.38,98.75 98.76,98.75 98.76,148.13" fill="#7b73da"/><rect x="0" y="148.13" width="49.38" height="49.38" fill="#97bdfa"/><polygon points="0,148.13 49.38,148.13 0,197.51" fill="#8078db"/><rect x="49.38" y="148.13" width="49.38" height="49.38" fill="#958fe1"/><polygon points="49.38,148.13 98.76,197.51 49.38,197.51" fill="#4085f6"/><rect x="98.75" y="98.75" width="98.75" height="98.75" fill="#ffffff"/><rect x="98.75" y="98.75" width="49.38" height="49.38" fill="#b9d2fc"/><polygon points="98.75,98.75 148.13,98.75 148.13,148.13" fill="#afabe9"/><rect x="148.13" y="98.75" width="49.38" height="49.38" fill="#679ef8"/><polygon points="148.13,98.75 197.51,98.75 197.51,148.13" fill="#cee0fd"/><rect x="98.75" y="148.13" width="49.38" height="49.38" fill="#948de1"/><polygon points="98.75,148.13 148.13,148.13 148.13,197.51" fill="#ffffff"/><rect x="148.13" y="148.13" width="49.38" height="49.38" fill="#6b63d5"/><polygon points="148.13,148.13 197.51,148.13 197.51,197.51" fill="#eef4fe"/><rect x="197.5" y="98.75" width="98.75" height="98.75" fill="#ffffff"/><rect x="197.5" y="98.75" width="49.38" height="49.38" fill="#675ed4"/><polygon points="197.5,98.75 246.88,148.13 197.5,148.13" fill="#eff5fe"/><rect x="246.88" y="98.75" width="49.38" height="49.38" fill="#3d83f6"/><polygon points="296.26,98.75 296.26,148.13 246.88,148.13" fill="#8db6fa"/><rect x="197.5" y="148.13" width="49.38" height="49.38" fill="#8ab4fa"/><polygon points="197.5,148.13 246.88,148.13 246.88,197.51" fill="#92b9fa"/><rect x="246.88" y="148.13" width="49.38" height="49.38" fill="#ada8e8"/><polygon points="246.88,148.13 296.26,148.13 246.88,197.51" fill="#eae9f9"/><rect x="296.25" y="98.75" width="98.75" height="98.75" fill="#6860d5"/><polygon points="395,98.75 395,197.5 296.25,197.5" fill="#9fc2fb"/><rect x="0" y="197.5" width="98.75" height="98.75" fill="#ffffff"/><rect x="0" y="197.5" width="49.38" height="49.38" fill="#dce9fd"/><polygon points="0,197.5 49.38,246.88 0,246.88" fill="#4b40cc"/><rect x="49.38" y="197.5" width="49.38" height="49.38" fill="#aea9e8"/><polygon points="49.38,197.5 98.76,197.5 98.76,246.88" fill="#fefeff"/><rect x="0" y="246.88" width="49.38" height="49.38" fill="#f1f0fb"/><polygon points="0,246.88 49.38,246.88 49.38,296.26" fill="#c4c1ee"/><rect x="49.38" y="246.88" width="49.38" height="49.38" fill="#ebeaf9"/><polygon points="49.38,246.88 98.76,246.88 98.76,296.26" fill="#3e84f6"/><rect x="98.75" y="197.5" width="98.75" height="98.75" fill="#78a9f9"/><polygon points="98.75,197.5 197.5,296.25 98.75,296.25" fill="#d9d7f4"/><rect x="197.5" y="197.5" width="98.75" height="98.75" fill="#6ba0f8"/><polygon points="197.5,197.5 296.25,197.5 197.5,296.25" fill="#bdbaec"/><rect x="296.25" y="197.5" width="98.75" height="98.75" fill="#5e54d2"/><polygon points="296.25,197.5 395,296.25 296.25,296.25" fill="#4e8ef7"/><rect x="0" y="296.25" width="98.75" height="98.75" fill="#ffffff"/><rect x="0" y="296.25" width="49.38" height="49.38" fill="#81aff9"/><polygon points="0,296.25 49.38,296.25 0,345.63" fill="#473ccb"/><rect x="49.38" y="296.25" width="49.38" height="49.38" fill="#635ad3"/><polygon points="49.38,296.25 98.76,345.63 49.38,345.63" fill="#b6d0fc"/><rect x="0" y="345.63" width="49.38" height="49.38" fill="#c8dcfc"/><polygon points="0,345.63 49.38,345.63 0,395.01" fill="#e2e0f7"/><rect x="49.38" y="345.63" width="49.38" height="49.38" fill="#adcbfb"/><polygon points="49.38,345.63 98.76,345.63 49.38,395.01" fill="#669ef8"/><rect x="98.75" y="296.25" width="98.75" height="98.75" fill="#ffffff"/><rect x="98.75" y="296.25" width="49.38" height="49.38" fill="#eaf2fe"/><polygon points="98.75,296.25 148.13,296.25 98.75,345.63" fill="#4e43cd"/><rect x="148.13" y="296.25" width="49.38" height="49.38" fill="#abc9fb"/><polygon points="148.13,296.25 197.51,296.25 197.51,345.63" fill="#d1cef2"/><rect x="98.75" y="345.63" width="49.38" height="49.38" fill="#b0cdfb"/><polygon points="148.13,345.63 148.13,395.01 98.75,395.01" fill="#5349ce"/><rect x="148.13" y="345.63" width="49.38" height="49.38" fill="#bcd4fc"/><polygon points="148.13,345.63 197.51,345.63 197.51,395.01" fill="#7068d7"/><rect x="197.5" y="296.25" width="98.75" height="98.75" fill="#f1f6fe"/><polygon points="197.5,296.25 296.25,296.25 197.5,395" fill="#8982de"/><rect x="296.25" y="296.25" width="98.75" height="98.75" fill="#81aff9"/><polygon points="395,296.25 395,395 296.25,395" fill="#8ab5fa"/><rect x="0" y="395" width="98.75" height="98.75" fill="#cee0fd"/><polygon points="0,395 98.75,395 0,493.75" fill="#ebf2fe"/><rect x="98.75" y="395" width="98.75" height="98.75" fill="#bed5fc"/><polygon points="98.75,395 197.5,395 98.75,493.75" fill="#746cd8"/><rect x="197.5" y="395" width="98.75" height="98.75" fill="#c5dafc"/><polygon points="197.5,395 296.25,395 197.5,493.75" fill="#9993e2"/><rect x="296.25" y="395" width="98.75" height="98.75" fill="#4689f6"/><polygon points="296.25,395 395,395 296.25,493.75" fill="#90b8fa"/><rect x="0" y="493.75" width="98.75" height="98.75" fill="#e0def6"/><polygon points="98.75,493.75 98.75,592.5 0,592.5" fill="#92bafa"/><rect x="98.75" y="493.75" width="98.75" height="98.75" fill="#ffffff"/><rect x="98.75" y="493.75" width="49.38" height="49.38" fill="#cfe0fd"/><polygon points="148.13,493.75 148.13,543.13 98.75,543.13" fill="#dce9fd"/><rect x="148.13" y="493.75" width="49.38" height="49.38" fill="#9892e2"/><polygon points="148.13,493.75 197.51,543.13 148.13,543.13" fill="#645bd3"/><rect x="98.75" y="543.13" width="49.38" height="49.38" fill="#dce9fd"/><polygon points="98.75,543.13 148.13,543.13 148.13,592.51" fill="#eae9f9"/><rect x="148.13" y="543.13" width="49.38" height="49.38" fill="#689ff8"/><polygon points="197.51,543.13 197.51,592.51 148.13,592.51" fill="#e6e5f8"/><rect x="197.5" y="493.75" width="98.75" height="98.75" fill="#867fdd"/><polygon points="197.5,493.75 296.25,592.5 197.5,592.5" fill="#f2f7fe"/><rect x="296.25" y="493.75" width="98.75" height="98.75" fill="#c7c4ef"/><polygon points="296.25,493.75 395,493.75 395,592.5" fill="#d7e6fd"/><rect x="0" y="592.5" width="98.75" height="98.75" fill="#ffffff"/><rect x="0" y="592.5" width="49.38" height="49.38" fill="#5d98f8"/><polygon points="49.38,592.5 49.38,641.88 0,641.88" fill="#dde9fd"/><rect x="49.38" y="592.5" width="49.38" height="49.38" fill="#e5e3f8"/><polygon points="98.76,592.5 98.76,641.88 49.38,641.88" fill="#a3c4fb"/><rect x="0" y="641.88" width="49.38" height="49.38" fill="#f3f2fc"/><polygon points="0,641.88 49.38,691.26 0,691.26" fill="#c1d7fc"/><rect x="49.38" y="641.88" width="49.38" height="49.38" fill="#5895f7"/><polygon points="49.38,641.88 98.76,641.88 98.76,691.26" fill="#a3c5fb"/><rect x="98.75" y="592.5" width="98.75" height="98.75" fill="#ffffff"/><rect x="98.75" y="592.5" width="49.38" height="49.38" fill="#e9e7f9"/><polygon points="98.75,592.5 148.13,641.88 98.75,641.88" fill="#8fb8fa"/><rect x="148.13" y="592.5" width="49.38" height="49.38" fill="#f4f8fe"/><polygon points="197.51,592.5 197.51,641.88 148.13,641.88" fill="#5248ce"/><rect x="98.75" y="641.88" width="49.38" height="49.38" fill="#f9f9fd"/><polygon points="148.13,641.88 148.13,691.26 98.75,691.26" fill="#639bf8"/><rect x="148.13" y="641.88" width="49.38" height="49.38" fill="#dae8fd"/><polygon points="197.51,641.88 197.51,691.26 148.13,691.26" fill="#ddeafd"/><rect x="197.5" y="592.5" width="98.75" height="98.75" fill="#ffffff"/><rect x="197.5" y="592.5" width="49.38" height="49.38" fill="#cee0fd"/><polygon points="197.5,592.5 246.88,641.88 197.5,641.88" fill="#b4b0ea"/><rect x="246.88" y="592.5" width="49.38" height="49.38" fill="#736bd7"/><polygon points="246.88,592.5 296.26,641.88 246.88,641.88" fill="#4488f6"/><rect x="197.5" y="641.88" width="49.38" height="49.38" fill="#99befa"/><polygon points="197.5,641.88 246.88,641.88 246.88,691.26" fill="#f8f8fd"/><rect x="246.88" y="641.88" width="49.38" height="49.38" fill="#d8e6fd"/><polygon points="246.88,641.88 296.26,641.88 296.26,691.26" fill="#619af8"/><rect x="296.25" y="592.5" width="98.75" height="98.75" fill="#fbfbfe"/><polygon points="395,592.5 395,691.25 296.25,691.25" fill="#5693f7"/><rect x="0" y="691.25" width="98.75" height="98.75" fill="#ffffff"/><rect x="0" y="691.25" width="49.38" height="49.38" fill="#635ad3"/><polygon points="0,691.25 49.38,740.63 0,740.63" fill="#5a50d0"/><rect x="49.38" y="691.25" width="49.38" height="49.38" fill="#689ff8"/><polygon points="49.38,691.25 98.76,691.25 49.38,740.63" fill="#e0ebfe"/><rect x="0" y="740.63" width="49.38" height="49.38" fill="#669df8"/><polygon points="0,740.63 49.38,740.63 49.38,790.01" fill="#b1cdfb"/><rect x="49.38" y="740.63" width="49.38" height="49.38" fill="#b2cefb"/><polygon points="49.38,740.63 98.76,740.63 98.76,790.01" fill="#5392f7"/><rect x="98.75" y="691.25" width="98.75" height="98.75" fill="#f4f3fc"/><polygon points="98.75,691.25 197.5,691.25 197.5,790" fill="#e4eefe"/><rect x="197.5" y="691.25" width="98.75" height="98.75" fill="#ffffff"/><rect x="197.5" y="691.25" width="49.38" height="49.38" fill="#5a50d1"/><polygon points="246.88,691.25 246.88,740.63 197.5,740.63" fill="#70a4f8"/><rect x="246.88" y="691.25" width="49.38" height="49.38" fill="#7269d7"/><polygon points="246.88,691.25 296.26,691.25 246.88,740.63" fill="#9d97e3"/><rect x="197.5" y="740.63" width="49.38" height="49.38" fill="#bfbbed"/><polygon points="246.88,740.63 246.88,790.01 197.5,790.01" fill="#e2e0f7"/><rect x="246.88" y="740.63" width="49.38" height="49.38" fill="#6d64d6"/><polygon points="296.26,740.63 296.26,790.01 246.88,790.01" fill="#e3edfe"/><rect x="296.25" y="691.25" width="98.75" height="98.75" fill="#ffffff"/><rect x="296.25" y="691.25" width="49.38" height="49.38" fill="#5045ce"/><polygon points="296.25,691.25 345.63,691.25 345.63,740.63" fill="#eaf2fe"/><rect x="345.63" y="691.25" width="49.38" height="49.38" fill="#4a8cf7"/><polygon points="345.63,691.25 395.01,691.25 345.63,740.63" fill="#c1d7fc"/><rect x="296.25" y="740.63" width="49.38" height="49.38" fill="#e5eefe"/><polygon points="345.63,740.63 345.63,790.01 296.25,790.01" fill="#6057d2"/><rect x="345.63" y="740.63" width="49.38" height="49.38" fill="#8f89df"/><polygon points="345.63,740.63 395.01,740.63 345.63,790.01" fill="#96bcfa"/></g></svg>